<svg width="24" height="24" viewBox="0 0 24 24" fill="none" xmlns="http://www.w3.org/2000/svg">
    <path fill-rule="evenodd" clip-rule="evenodd" d="M0.309605 2.31276C0.139354 2.48475 0 2.73636 0 2.87192C0 3.38368 0.434203 3.65771 2.26724 4.30299C3.27134 4.65652 4.11289 4.96584 4.13723 4.9903C4.16157 5.01489 4.71078 7.5091 5.35774 10.533C6.15956 14.281 6.60423 16.1093 6.75468 16.2772C6.96705 16.5143 7.20793 16.5234 13.2418 16.5234C19.3129 16.5234 19.5153 16.5157 19.7327 16.2729C20.0195 15.9527 20.02 15.4385 19.7339 15.1191C19.5192 14.8796 19.2859 14.8685 13.7686 14.8367L8.02677 14.8036L6.84775 9.32683C6.19941 6.31461 5.59924 3.78396 5.51424 3.70307C5.35244 3.5493 1.03929 2 0.772561 2C0.688193 2 0.479856 2.14078 0.309605 2.31276ZM19.4843 2.49431C17.1746 3.11041 15.996 5.6952 17.0628 7.80467C17.7287 9.12133 18.8829 9.82814 20.3671 9.82814C21.4475 9.82814 22.1953 9.5169 22.9524 8.75213C23.6979 7.99895 24.0028 7.23902 24 6.14046C23.9973 5.11222 23.7798 4.49829 23.1375 3.70651C22.3537 2.74031 20.6639 2.1795 19.4843 2.49431ZM22.3589 4.90278L22.6954 5.25758L21.2481 6.71541L19.801 8.17336L18.9174 7.28768C18.4315 6.80064 18.034 6.34697 18.034 6.27945C18.034 6.11077 18.5525 5.56716 18.7132 5.56716C18.7853 5.56716 19.0751 5.7961 19.3573 6.07587L19.8703 6.58457L20.8724 5.56627C21.4235 5.00623 21.9078 4.54797 21.9484 4.54797C21.9891 4.54797 22.1739 4.7076 22.3589 4.90278ZM7.3865 5.8947C7.27754 6.0049 7.18838 6.25308 7.18838 6.44647C7.18838 6.63973 7.55347 8.3405 7.99966 10.2257C8.65468 12.9934 8.86378 13.6967 9.08561 13.8781C9.33808 14.0848 9.783 14.1029 14.6189 14.1029C18.695 14.1029 19.9272 14.0662 20.0985 13.9397C20.2287 13.8434 20.4971 13.1536 20.7523 12.2589C20.9904 11.4242 21.2133 10.652 21.2475 10.543C21.3 10.3754 21.1583 10.3438 20.3339 10.3393C18.6774 10.3302 17.4244 9.56965 16.6509 8.10367C16.3524 7.53789 16.2189 7.09238 16.1723 6.50673L16.1078 5.69456H11.8463C8.14027 5.69456 7.5589 5.72068 7.3865 5.8947ZM7.37755 17.4996C6.77625 17.8197 6.45365 18.177 6.22917 18.7706C5.79938 19.9074 6.31632 21.2778 7.35434 21.7541C9.01107 22.5139 10.7556 21.4303 10.7556 19.6415C10.7556 18.7249 10.2543 17.901 9.43317 17.4676C8.98245 17.2297 7.85122 17.2473 7.37755 17.4996ZM16.8137 17.6091C15.497 18.4064 15.2781 20.1942 16.3629 21.2901C16.9093 21.8422 17.4973 22.0494 18.2971 21.9718C19.1331 21.8906 19.7321 21.4529 20.1345 20.6291C20.5023 19.8761 20.4952 19.3257 20.1068 18.499C19.5761 17.3691 17.9402 16.927 16.8137 17.6091ZM9.1247 18.8742C9.67304 19.3876 9.54869 20.213 8.86769 20.5794C8.45051 20.8039 8.12148 20.7591 7.73772 20.4257C7.47301 20.1956 7.39016 20.0095 7.39016 19.6447C7.39016 18.7068 8.44534 18.2381 9.1247 18.8742ZM18.7333 18.8746C19.038 19.1823 19.1329 19.7054 18.9646 20.1486C18.8406 20.475 18.191 20.7547 17.7727 20.6619C16.6411 20.4108 16.8711 18.5618 18.034 18.5618C18.2797 18.5618 18.5382 18.6774 18.7333 18.8746Z" fill="white"/>
</svg>
