<svg width="24" height="20" viewBox="0 0 24 20" fill="none" xmlns="http://www.w3.org/2000/svg">
    <path d="M7.1125 10.25H5.89377L4.26907 2.25H5.04583H22.575C22.6835 2.25 22.7859 2.30177 22.8508 2.38066C22.9114 2.45427 22.912 2.51193 22.9 2.55248C22.9 2.55258 22.9 2.55268 22.8999 2.55279L20.6509 10.0512C20.6509 10.0513 20.6509 10.0513 20.6509 10.0513C20.6263 10.1327 20.5177 10.25 20.325 10.25H7.1125ZM6.33333 18.125C6.33333 17.7019 6.71968 17.25 7.33333 17.25C7.94699 17.25 8.33333 17.7019 8.33333 18.125C8.33333 18.5481 7.94699 19 7.33333 19C6.71968 19 6.33333 18.5481 6.33333 18.125ZM20.3333 18.125C20.3333 18.5481 19.947 19 19.3333 19C18.7197 19 18.3333 18.5481 18.3333 18.125C18.3333 17.7019 18.7197 17.25 19.3333 17.25C19.947 17.25 20.3333 17.7019 20.3333 18.125Z" stroke="#313131" stroke-width="2"/>
</svg>
