<svg width="24" height="24" viewBox="0 0 24 24" fill="none" xmlns="http://www.w3.org/2000/svg">
    <path fill-rule="evenodd" clip-rule="evenodd" d="M4.97511 3.01547C4.53 3.07876 4.15767 3.40671 4.0353 3.84328C4.00184 3.96268 4 4.38724 4 11.9965C4 18.696 4.0045 20.0417 4.0272 20.1322C4.1251 20.5225 4.41575 20.832 4.79652 20.9511L4.95263 21H9.61397H14.2753L14.2807 18.4114L14.2862 15.8227L14.3322 15.7241C14.3905 15.5993 14.4789 15.5082 14.6064 15.4413L14.7064 15.3888L17.3532 15.3836L20 15.3784L19.9948 9.64425L19.9896 3.91008L19.9449 3.78046C19.8268 3.43827 19.5658 3.183 19.2057 3.05744L19.049 3.00283L12.0748 3.00022C8.003 2.99871 5.04841 3.00504 4.97511 3.01547ZM17.3188 6.4076C17.445 6.44487 17.5809 6.56116 17.6469 6.68849C17.7924 6.96879 17.6656 7.3225 17.3729 7.45291L17.268 7.49966H11.9948C7.03198 7.49966 6.71711 7.49764 6.64483 7.46542C6.51169 7.40609 6.41679 7.31665 6.35261 7.19008C6.20572 6.90039 6.32984 6.56061 6.63158 6.42627C6.72137 6.3863 6.73672 6.38618 11.9825 6.38574C15.8355 6.38543 17.2635 6.39127 17.3188 6.4076ZM17.418 9.82891C17.5562 9.90564 17.6671 10.054 17.6987 10.2042C17.7514 10.4539 17.6084 10.7239 17.3635 10.8373C17.2918 10.8705 17.0205 10.8723 12.0048 10.8723H6.72163L6.60542 10.816C6.23844 10.6384 6.18021 10.1533 6.49406 9.88854C6.65838 9.74992 6.18643 9.76053 12.0248 9.76434L17.308 9.76779L17.418 9.82891ZM17.3168 13.1616C17.4468 13.1997 17.5954 13.3298 17.6601 13.4621C17.6938 13.531 17.7053 13.5898 17.7053 13.6927C17.7053 13.865 17.6534 13.9803 17.5205 14.1028C17.3389 14.2701 17.8837 14.2557 11.9642 14.25L6.70162 14.2449L6.5988 14.1914C6.13826 13.952 6.20881 13.3003 6.71163 13.149C6.73914 13.1407 9.11269 13.1332 11.9862 13.1322C16.6863 13.1307 17.2213 13.1337 17.3168 13.1616ZM15.4302 16.5163C15.4092 16.537 15.4141 20.9845 15.4351 20.977C15.4656 20.966 19.9796 16.5397 19.9796 16.5208C19.9796 16.5005 15.4508 16.496 15.4302 16.5163Z" fill="white"/>
</svg>
