<svg width="16" height="16" viewBox="0 0 16 16" fill="none" xmlns="http://www.w3.org/2000/svg">
    <path d="M11.3466 0.586572C12.1287 -0.195524 13.3988 -0.195524 14.1809 0.586572L15.4134 1.82019C16.1955 2.60204 16.1955 3.87101 15.4134 4.65317L13.8993 6.16743L9.83243 2.10083L11.3466 0.586572ZM13.1923 6.8745L5.89696 14.1674C5.57161 14.4927 5.16805 14.7336 4.72695 14.8619L0.96259 15.9694C0.699182 16.0477 0.414188 15.9757 0.219917 15.7536C0.0256392 15.5878 -0.0469951 15.303 0.0305257 15.0371L1.13778 11.2734C1.26792 10.8322 1.50661 10.4286 1.83227 10.1033L9.12542 2.80853L13.1923 6.8745Z" fill="white"/>
</svg>
