<svg width="24" height="20" viewBox="0 0 24 20" fill="none" xmlns="http://www.w3.org/2000/svg">
    <path d="M22.8991 9.81612C22.9477 9.85597 22.9766 9.88661 22.9929 9.90636L22.9917 9.91556V9.98047C22.9917 10.0237 22.9746 10.0789 22.913 10.1357C22.8479 10.1957 22.7548 10.2344 22.6583 10.2344H21.325H20.3203L20.325 11.239L20.3542 17.4883C20.3542 17.4889 20.3542 17.4895 20.3542 17.4902C20.3541 17.5467 20.3499 17.606 20.3403 17.687L20.3333 17.7456V17.8047V18.4375C20.3333 18.6887 20.097 19 19.6667 19H19.0971C19.0407 18.9901 18.9572 18.9799 18.8574 18.9842C18.7472 18.9795 18.6598 18.9917 18.6102 19H16.3333C15.903 19 15.6667 18.6887 15.6667 18.4375V15C15.6667 13.6965 14.5613 12.75 13.3333 12.75H10.6667C9.43866 12.75 8.33333 13.6965 8.33333 15V18.4375C8.33333 18.6887 8.09699 19 7.66667 19H5.3375C5.31144 19 5.28013 18.9984 5.21238 18.9941L5.14221 18.9897L5.07211 18.9952C5.04549 18.9973 5.03018 18.9985 5.01651 18.9993C5.00454 19 4.99996 19 4.99996 19H4.33333C3.90326 19 3.66667 18.6885 3.66667 18.4375V14.0625C3.66667 14.0485 3.66724 14.0332 3.6679 14.0241L3.67042 13.9886V13.9531V11.2344V10.2344H2.67042H1.33542C1.207 10.2344 1.12017 10.1888 1.07096 10.1425C1.02356 10.098 1 10.0447 1 9.98047C1 9.92651 1.00888 9.89789 1.01647 9.88039C1.02324 9.86479 1.03913 9.83466 1.08203 9.79102L11.7328 1.08746L11.7595 1.06562L11.7847 1.04198C11.796 1.03135 11.8032 1.02704 11.8067 1.02509C11.8106 1.02294 11.8173 1.0198 11.8296 1.01633C11.8587 1.00812 11.9108 1 12.0167 1C12.0761 1 12.1378 1.00835 12.1913 1.0239C12.2368 1.03712 12.2648 1.05206 12.2793 1.06174L22.8972 9.81459L22.8991 9.81612ZM19.2118 19.0258C19.2118 19.0258 19.2096 19.0252 19.2034 19.0236L19.2036 19.0237C19.207 19.0245 19.2118 19.0258 19.2118 19.0258Z" stroke="#313131" stroke-width="2"/>
</svg>

