<svg width="22" height="22" viewBox="0 0 22 22" fill="none" xmlns="http://www.w3.org/2000/svg">
    <path d="M11.0053 0.166626C6.4818 0.166626 5.15884 0.171293 4.90168 0.192625C3.97337 0.26979 3.39572 0.415952 2.76641 0.729276C2.28142 0.970102 1.89894 1.24926 1.52145 1.64058C0.833969 2.35423 0.417315 3.2322 0.266486 4.27584C0.193155 4.78249 0.171822 4.88582 0.167489 7.47374C0.165822 8.33638 0.167489 9.47168 0.167489 10.9945C0.167489 15.5143 0.172489 16.836 0.194155 17.0926C0.269152 17.9959 0.410815 18.5642 0.710806 19.1859C1.28412 20.3758 2.37909 21.2692 3.66905 21.6025C4.1157 21.7175 4.60902 21.7808 5.24234 21.8108C5.51066 21.8225 8.24558 21.8308 10.9822 21.8308C13.7187 21.8308 16.4553 21.8275 16.717 21.8141C17.4503 21.7796 17.8761 21.7225 18.3469 21.6008C19.6452 21.2658 20.7202 20.3858 21.3052 19.1792C21.5993 18.5726 21.7485 17.9826 21.816 17.1264C21.8307 16.9398 21.8368 13.9637 21.8368 10.9916C21.8368 8.01906 21.8302 5.04848 21.8155 4.86182C21.7472 3.99184 21.598 3.40686 21.2943 2.78855C21.0452 2.2824 20.7685 1.90441 20.3669 1.51792C19.6501 0.833272 18.7734 0.416618 17.7288 0.265956C17.2226 0.192792 17.1218 0.171126 14.5319 0.166626H11.0053Z" fill="#FFD000"/>
    <path d="M11.0004 2.99988C8.82782 2.99988 8.55516 3.00938 7.70186 3.04821C6.85022 3.08721 6.2689 3.22204 5.76025 3.41987C5.2341 3.62419 4.78778 3.89752 4.34313 4.34234C3.89814 4.78699 3.62481 5.23331 3.41982 5.75929C3.22149 6.26811 3.0865 6.8496 3.04817 7.7009C3.01 8.55421 3 8.82704 3 10.9996C3 13.1722 3.00967 13.4441 3.04833 14.2974C3.0875 15.149 3.22233 15.7303 3.41999 16.239C3.62448 16.7651 3.89781 17.2114 4.34263 17.6561C4.78711 18.1011 5.23343 18.3751 5.75925 18.5794C6.26823 18.7772 6.84972 18.9121 7.70119 18.9511C8.5545 18.9899 8.82699 18.9994 10.9994 18.9994C13.1722 18.9994 13.444 18.9899 14.2973 18.9511C15.149 18.9121 15.7309 18.7772 16.2399 18.5794C16.7659 18.3751 17.2116 18.1011 17.6561 17.6561C18.101 17.2114 18.3744 16.7651 18.5794 16.2391C18.776 15.7303 18.911 15.1488 18.951 14.2975C18.9893 13.4442 18.9993 13.1722 18.9993 10.9996C18.9993 8.82704 18.9893 8.55438 18.951 7.70107C18.911 6.84943 18.776 6.26811 18.5794 5.75946C18.3744 5.23331 18.101 4.78699 17.6561 4.34234C17.2111 3.89735 16.7661 3.62403 16.2394 3.41987C15.7294 3.22204 15.1478 3.08721 14.2962 3.04821C13.4428 3.00938 13.1712 2.99988 10.9979 2.99988H11.0004ZM10.2828 4.4415C10.4958 4.44117 10.7334 4.4415 11.0004 4.4415C13.1364 4.4415 13.3895 4.44917 14.233 4.4875C15.013 4.52317 15.4363 4.65349 15.7183 4.76299C16.0916 4.90799 16.3578 5.08131 16.6376 5.36131C16.9176 5.6413 17.0909 5.90796 17.2362 6.28128C17.3457 6.56294 17.4762 6.98626 17.5117 7.76623C17.5501 8.60954 17.5584 8.86287 17.5584 10.9978C17.5584 13.1327 17.5501 13.3861 17.5117 14.2294C17.4761 15.0093 17.3457 15.4327 17.2362 15.7143C17.0912 16.0876 16.9176 16.3535 16.6376 16.6333C16.3576 16.9133 16.0918 17.0866 15.7183 17.2316C15.4366 17.3416 15.013 17.4716 14.233 17.5073C13.3897 17.5456 13.1364 17.5539 11.0004 17.5539C8.86432 17.5539 8.61116 17.5456 7.76786 17.5073C6.98788 17.4713 6.56456 17.3409 6.2824 17.2314C5.90908 17.0865 5.64242 16.9131 5.36243 16.6331C5.08244 16.3531 4.90911 16.0871 4.76378 15.7137C4.65428 15.432 4.52379 15.0087 4.48829 14.2287C4.44996 13.3854 4.44229 13.1321 4.44229 10.9958C4.44229 8.85953 4.44996 8.60754 4.48829 7.76423C4.52395 6.98426 4.65428 6.56094 4.76378 6.27895C4.90878 5.90562 5.08244 5.63896 5.36243 5.35897C5.64242 5.07898 5.90908 4.90565 6.2824 4.76032C6.56439 4.65033 6.98788 4.52033 7.76786 4.4845C8.50583 4.45117 8.79182 4.44117 10.2828 4.4395V4.4415ZM15.2706 5.76979C14.7406 5.76979 14.3107 6.19928 14.3107 6.72943C14.3107 7.25942 14.7406 7.6894 15.2706 7.6894C15.8006 7.6894 16.2306 7.25942 16.2306 6.72943C16.2306 6.19945 15.8006 5.76946 15.2706 5.76946V5.76979ZM11.0004 6.89143C8.73166 6.89143 6.89222 8.73087 6.89222 10.9996C6.89222 13.2684 8.73166 15.107 11.0004 15.107C13.2692 15.107 15.108 13.2684 15.108 10.9996C15.108 8.73087 13.269 6.89143 11.0003 6.89143H11.0004ZM11.0004 8.33305C12.473 8.33305 13.667 9.52685 13.667 10.9996C13.667 12.4723 12.473 13.6662 11.0004 13.6662C9.52763 13.6662 8.33384 12.4723 8.33384 10.9996C8.33384 9.52685 9.52763 8.33305 11.0004 8.33305Z" fill="#58595B"/>
</svg>
