<svg width="24" height="24" viewBox="0 0 24 24" fill="none" xmlns="http://www.w3.org/2000/svg">
    <path d="M9.21875 13.25H20.4688C20.7031 13.25 20.9375 13.0449 20.9375 12.7812V5.28125C20.9375 5.04688 20.7031 4.8125 20.4688 4.8125H16.25V8.5625L14.8438 7.625L13.4375 8.5625V4.8125H9.21875C8.95508 4.8125 8.75 5.04688 8.75 5.28125V12.7812C8.75 13.0449 8.95508 13.25 9.21875 13.25ZM21.4062 15.125H6.875V4.34375C6.875 4.10938 6.64062 3.875 6.40625 3.875H3.59375C3.33008 3.875 3.125 4.10938 3.125 4.34375V5.28125C3.125 5.54492 3.33008 5.75 3.59375 5.75H5V16.5312C5 16.7949 5.20508 17 5.46875 17H7.87109C7.8418 17.1465 7.8125 17.3223 7.8125 17.4688C7.8125 18.2598 8.42773 18.875 9.21875 18.875C9.98047 18.875 10.625 18.2598 10.625 17.4688C10.625 17.3223 10.5664 17.1465 10.5371 17H16.3379C16.2793 17.1465 16.25 17.3223 16.25 17.4688C16.25 18.2598 16.8652 18.875 17.6562 18.875C18.418 18.875 19.0625 18.2598 19.0625 17.4688C19.0625 17.3223 19.0039 17.1465 18.9746 17H21.4062C21.6406 17 21.875 16.7949 21.875 16.5312V15.5938C21.875 15.3594 21.6406 15.125 21.4062 15.125Z" fill="white"/>
</svg>
