<svg width="24" height="24" viewBox="0 0 24 24" fill="none" xmlns="http://www.w3.org/2000/svg">
    <path d="M5.9375 17C5.9375 17.5273 6.34766 17.9375 6.875 17.9375H11.5625V13.25H5.9375V17ZM13.4375 17.9375H18.125C18.623 17.9375 19.0625 17.5273 19.0625 17V13.25H13.4375V17.9375ZM19.0625 8.5625H17.8027C18.0078 8.21094 18.125 7.83008 18.125 7.39062C18.125 5.98438 16.9531 4.8125 15.5469 4.8125C14.3164 4.8125 13.5254 5.45703 12.5293 6.83398C11.5039 5.45703 10.7129 4.8125 9.51172 4.8125C8.07617 4.8125 6.93359 5.98438 6.93359 7.39062C6.93359 7.83008 7.02148 8.21094 7.22656 8.5625H5.9375C5.41016 8.5625 5 9.00195 5 9.5V11.8438C5 12.1074 5.20508 12.3125 5.46875 12.3125H19.5312C19.7656 12.3125 20 12.1074 20 11.8438V9.5C20 9.00195 19.5605 8.5625 19.0625 8.5625ZM9.48242 8.5625C8.83789 8.5625 8.31055 8.06445 8.31055 7.39062C8.31055 6.74609 8.83789 6.21875 9.48242 6.21875C10.0684 6.21875 10.5078 6.33594 12.0312 8.5625H9.48242ZM15.5469 8.5625H12.998C14.5215 6.33594 14.9316 6.21875 15.5469 6.21875C16.1914 6.21875 16.7188 6.74609 16.7188 7.39062C16.7188 8.06445 16.1914 8.5625 15.5469 8.5625Z" fill="white"/>
</svg>
