<svg width="24" height="24" viewBox="0 0 24 24" fill="none" xmlns="http://www.w3.org/2000/svg">
    <path d="M12 11.375C14.0508 11.375 15.75 9.70508 15.75 7.625C15.75 5.57422 14.0508 3.875 12 3.875C9.91992 3.875 8.25 5.57422 8.25 7.625C8.25 9.70508 9.91992 11.375 12 11.375ZM14.6074 12.3125H14.1094C13.4648 12.6348 12.7617 12.7812 12 12.7812C11.2383 12.7812 10.5059 12.6348 9.86133 12.3125H9.36328C7.19531 12.3125 5.4375 14.0996 5.4375 16.2676V17.4688C5.4375 18.2598 6.05273 18.875 6.84375 18.875H17.1562C17.918 18.875 18.5625 18.2598 18.5625 17.4688V16.2676C18.5625 14.0996 16.7754 12.3125 14.6074 12.3125Z" fill="#FFD000"/>
</svg>
