<svg width="24" height="24" viewBox="0 0 24 24" fill="none" xmlns="http://www.w3.org/2000/svg">
    <path d="M22.4973 20.0632L17.3539 14.9204C18.5235 13.1842 19.1006 11.0149 18.7917 8.70346C18.2649 4.77181 15.0422 1.57227 11.1062 1.07401C5.2543 0.333611 0.333503 5.25387 1.07403 11.1052C1.57247 15.0424 4.77279 18.2673 8.70531 18.7914C11.017 19.1003 13.187 18.5235 14.9229 17.3539L20.0663 22.4967C20.7375 23.1678 21.8259 23.1678 22.497 22.4967C23.1676 21.8247 23.1676 20.7334 22.4973 20.0632ZM4.39879 9.93653C4.39879 6.90412 6.86607 4.43712 9.89881 4.43712C12.9316 4.43712 15.3988 6.90412 15.3988 9.93653C15.3988 12.9689 12.9316 15.4359 9.89881 15.4359C6.86607 15.4359 4.39879 12.9698 4.39879 9.93653Z" stroke="#313131" stroke-width="2"/>
</svg>
