<svg width="17" height="15" viewBox="0 0 17 15" fill="none" xmlns="http://www.w3.org/2000/svg">
    <path d="M16.502 8.18945C16.8008 7.89062 16.8008 7.39258 16.502 7.06055L10.9238 1.48242C10.3926 0.984375 9.5625 1.34961 9.5625 2.04688V5.23438H5.04688C4.58203 5.23438 4.25 5.59961 4.25 6.03125V9.21875C4.25 9.68359 4.58203 10.0156 5.04688 10.0156H9.5625V13.2031C9.5625 13.9336 10.4258 14.2656 10.9238 13.7676L16.502 8.18945ZM6.375 13.6016V12.2734C6.375 12.0742 6.17578 11.875 5.97656 11.875H3.1875C2.58984 11.875 2.125 11.4102 2.125 10.8125V4.4375C2.125 3.87305 2.58984 3.375 3.1875 3.375H5.97656C6.17578 3.375 6.375 3.20898 6.375 2.97656V1.64844C6.375 1.44922 6.17578 1.25 5.97656 1.25H3.1875C1.42773 1.25 0 2.67773 0 4.4375V10.8125C0 12.5723 1.42773 14 3.1875 14H5.97656C6.17578 14 6.375 13.834 6.375 13.6016Z" fill="white"/>
</svg>
