<svg width="24" height="24" viewBox="0 0 24 24" fill="none" xmlns="http://www.w3.org/2000/svg">
    <path d="M6.60415 13.2708L13.2708 6.60419L17.3958 10.7292L10.7291 17.3958L6.60415 13.2708ZM16.9999 7.00002C17.5695 7.56957 18.4789 7.58356 19.0312 7.03127L21.0937 9.09377C21.6632 9.66332 21.6772 10.5727 21.1249 11.125L11.125 21.125C10.5727 21.6773 9.66327 21.6633 9.09373 21.0937L7.03123 19.0312C7.58352 18.4789 7.56953 17.5695 6.99998 17C6.43043 16.4304 5.52103 16.4164 4.96874 16.9687L2.90625 14.9062C2.3367 14.3367 2.32271 13.4273 2.875 12.875L12.875 2.87504C13.4273 2.32275 14.3367 2.33674 14.9062 2.90629L16.9687 4.96878C16.4164 5.52107 16.4304 6.43047 16.9999 7.00002ZM13.7656 5.76565C13.4808 5.48088 13.0261 5.47388 12.75 5.75003L5.74999 12.75C5.47384 13.0261 5.48084 13.4809 5.76561 13.7656L10.2343 18.2344C10.5191 18.5191 10.9738 18.5261 11.25 18.25L18.2499 11.25C18.5261 10.9739 18.5191 10.5192 18.2343 10.2344L13.7656 5.76565Z" fill="white"/>
</svg>
