<svg width="22" height="18" viewBox="0 0 22 18" fill="none" xmlns="http://www.w3.org/2000/svg">
    <path fill-rule="evenodd" clip-rule="evenodd" d="M21.9996 2.17745C21.1908 2.53913 20.3195 2.7795 19.4097 2.88662C20.3418 2.32839 21.0547 1.44379 21.395 0.390559C20.5238 0.905822 19.5555 1.28374 18.5295 1.4859C17.7046 0.60935 16.5329 0.0644531 15.2349 0.0644531C12.7426 0.0644531 10.7247 2.08346 10.7247 4.57424C10.7247 4.92575 10.7637 5.26968 10.84 5.60133C7.08993 5.41125 3.76524 3.61598 1.53965 0.884504C1.14042 1.57321 0.929149 2.35631 0.929149 3.15273V3.15326C0.929149 4.71719 1.7232 6.10042 2.93482 6.90708C2.19549 6.8851 1.50005 6.67891 0.889417 6.34482V6.40119C0.889417 8.5883 2.44398 10.4133 4.50965 10.8258C4.13121 10.9285 3.73171 10.9853 3.32013 10.9853C3.02861 10.9853 2.74771 10.9553 2.4684 10.9045C3.04538 12.6957 4.71075 14.0014 6.68297 14.0395C5.13659 15.251 3.19434 15.9724 1.07699 15.9724C0.711547 15.9724 0.355542 15.95 0 15.9074C2.00152 17.1917 4.37257 17.9354 6.91971 17.9354C15.2182 17.9354 19.7601 11.0583 19.7601 5.09557C19.7601 4.89744 19.7557 4.70545 19.7475 4.51134C20.6288 3.88084 21.393 3.08514 21.9979 2.17936L21.9999 2.17731L21.9995 2.17758L21.9996 2.17745Z" fill="#FFD000"/>
</svg>
